<mxfile host="65bd71144e">
    <diagram id="QK6RKz9KnO0iOS5KiN6y" name="Page-1">
        <mxGraphModel dx="634" dy="444" grid="1" gridSize="10" guides="1" tooltips="1" connect="1" arrows="1" fold="1" page="1" pageScale="1" pageWidth="827" pageHeight="1169" math="0" shadow="0">
            <root>
                <mxCell id="0"/>
                <mxCell id="1" parent="0"/>
                <mxCell id="3" value="Asignacion de revisores" style="whiteSpace=wrap;html=1;align=center;" vertex="1" parent="1">
                    <mxGeometry x="240" y="200" width="100" height="40" as="geometry"/>
                </mxCell>
                <mxCell id="4" value="tiene" style="shape=rhombus;perimeter=rhombusPerimeter;whiteSpace=wrap;html=1;align=center;" vertex="1" parent="1">
                    <mxGeometry x="230" y="280" width="120" height="60" as="geometry"/>
                </mxCell>
                <mxCell id="6" value="Asignacion" style="whiteSpace=wrap;html=1;align=center;" vertex="1" parent="1">
                    <mxGeometry x="240" y="440" width="100" height="40" as="geometry"/>
                </mxCell>
                <mxCell id="7" value="usuario" style="whiteSpace=wrap;html=1;align=center;" vertex="1" parent="1">
                    <mxGeometry y="440" width="100" height="40" as="geometry"/>
                </mxCell>
                <mxCell id="8" value="Propuesta de articulo" style="whiteSpace=wrap;html=1;align=center;" vertex="1" parent="1">
                    <mxGeometry x="510" y="440" width="100" height="40" as="geometry"/>
                </mxCell>
                <mxCell id="9" value="Perfil de articulo" style="whiteSpace=wrap;html=1;align=center;" vertex="1" parent="1">
                    <mxGeometry x="510" y="585" width="100" height="40" as="geometry"/>
                </mxCell>
                <mxCell id="10" value="Tiene" style="shape=rhombus;perimeter=rhombusPerimeter;whiteSpace=wrap;html=1;align=center;" vertex="1" parent="1">
                    <mxGeometry x="500" y="500" width="120" height="60" as="geometry"/>
                </mxCell>
                <mxCell id="11" value="Relationship" style="shape=rhombus;perimeter=rhombusPerimeter;whiteSpace=wrap;html=1;align=center;" vertex="1" parent="1">
                    <mxGeometry x="370" y="430" width="120" height="60" as="geometry"/>
                </mxCell>
                <mxCell id="12" value="tiene" style="shape=rhombus;perimeter=rhombusPerimeter;whiteSpace=wrap;html=1;align=center;" vertex="1" parent="1">
                    <mxGeometry x="110" y="430" width="120" height="60" as="geometry"/>
                </mxCell>
            </root>
        </mxGraphModel>
    </diagram>
</mxfile>